<?xml version="1.0" encoding="UTF-8"?>
<!DOCTYPE svg PUBLIC "-//W3C//DTD SVG 1.1//EN" "http://www.w3.org/Graphics/SVG/1.1/DTD/svg11.dtd">
<svg xmlns="http://www.w3.org/2000/svg" version="1.1" width="155px" height="144px" style="shape-rendering:geometricPrecision; text-rendering:geometricPrecision; image-rendering:optimizeQuality; fill-rule:evenodd; clip-rule:evenodd" xmlns:xlink="http://www.w3.org/1999/xlink">
<g><path style="opacity:1" fill="#e1e1e1" d="M -0.5,-0.5 C 0.5,-0.5 1.5,-0.5 2.5,-0.5C 1.70951,0.40128 0.709515,1.06795 -0.5,1.5C -0.5,0.833333 -0.5,0.166667 -0.5,-0.5 Z"/></g>
<g><path style="opacity:1" fill="#000000" d="M 2.5,-0.5 C 51.8333,-0.5 101.167,-0.5 150.5,-0.5C 152.167,0.5 153.5,1.83333 154.5,3.5C 154.5,48.8333 154.5,94.1667 154.5,139.5C 153.5,141.167 152.167,142.5 150.5,143.5C 101.167,143.5 51.8333,143.5 2.5,143.5C 1.70951,142.599 0.709515,141.932 -0.5,141.5C -0.5,94.8333 -0.5,48.1667 -0.5,1.5C 0.709515,1.06795 1.70951,0.40128 2.5,-0.5 Z"/></g>
<g><path style="opacity:1" fill="#e3e3e3" d="M 150.5,-0.5 C 151.833,-0.5 153.167,-0.5 154.5,-0.5C 154.5,0.833333 154.5,2.16667 154.5,3.5C 153.5,1.83333 152.167,0.5 150.5,-0.5 Z"/></g>
<g><path style="opacity:1" fill="#f8f8f8" d="M 50.5,40.5 C 59.8393,40.3335 69.1726,40.5002 78.5,41C 95.0451,44.0622 103.378,54.0622 103.5,71C 103.585,87.1898 95.918,97.5231 80.5,102C 70.5056,102.5 60.5056,102.666 50.5,102.5C 50.5,81.8333 50.5,61.1667 50.5,40.5 Z"/></g>
<g><path style="opacity:1" fill="#787878" d="M 64.5,51.5 C 64.5,64.5 64.5,77.5 64.5,90.5C 68.5,90.5 72.5,90.5 76.5,90.5C 72.3656,91.4849 68.0323,91.8182 63.5,91.5C 63.1711,77.9895 63.5044,64.6562 64.5,51.5 Z"/></g>
<g><path style="opacity:1" fill="#050505" d="M 64.5,51.5 C 86.7995,50.6493 94.6328,60.9826 88,82.5C 85.6936,87.2987 81.8603,89.9653 76.5,90.5C 72.5,90.5 68.5,90.5 64.5,90.5C 64.5,77.5 64.5,64.5 64.5,51.5 Z"/></g>
<g><path style="opacity:1" fill="#e5e5e5" d="M 154.5,139.5 C 154.5,140.833 154.5,142.167 154.5,143.5C 153.167,143.5 151.833,143.5 150.5,143.5C 152.167,142.5 153.5,141.167 154.5,139.5 Z"/></g>
<g><path style="opacity:1" fill="#e2e2e2" d="M -0.5,141.5 C 0.709515,141.932 1.70951,142.599 2.5,143.5C 1.5,143.5 0.5,143.5 -0.5,143.5C -0.5,142.833 -0.5,142.167 -0.5,141.5 Z"/></g>
</svg>
